# AST/ASF file generated using VICON BodyLanguage
# -----------------------------------------------
:version 1.10
:name VICON
:units
  mass 1.0
  length 0.45
  angle deg
:documentation
   .ast/.asf automatically generated from VICON data using
   VICON BodyBuilder and BodyLanguage model FoxedUp or BRILLIANT.MOD
:root
   order TX TY TZ RX RY RZ
   axis XYZ
   position 0 0 0  
   orientation 0 0 0 
:bonedata
  begin
     id 1 
     name lhipjoint
     direction 0.643272 -0.706573 0.294883 
     length 2.58915 
     axis 0 0 0  XYZ
  end
  begin
     id 2 
     name lfemur
     direction 0.34202 -0.939693 0  
     length 7.06802  
     axis 0 0 20  XYZ
    dof rx ry rz
    limits (-160.0 20.0)
           (-70.0 70.0)
           (-60.0 70.0)
  end
  begin
     id 3 
     name ltibia
     direction 0.34202 -0.939693 0   
     length 7.94147   
     axis 0 0 20   XYZ
    dof rx
    limits (-10.0 170.0)
  end
  begin
     id 4 
     name lfoot
     direction 0.0435058 -0.119531 0.991877   
     length 1.8399   
     axis -90 7.62852e-016 20   XYZ
    dof rx rz
    limits (-45.0 90.0)
           (-70.0 20.0)
  end
  begin
     id 5 
     name ltoes
     direction 1.53505e-011 -4.22157e-011 1   
     length 0.934412   
     axis -90 7.62852e-016 20   XYZ
    dof rx
    limits (-90.0 20.0)
  end
  begin
     id 6 
     name rhipjoint
     direction -0.636801 -0.711547 0.296959   
     length 2.57105  
     axis 0 0 0  XYZ 
  end
  begin
     id 7 
     name rfemur
     direction -0.34202 -0.939693 0   
     length 7.03285   
     axis 0 0 -20   XYZ
    dof rx ry rz
    limits (-160.0 20.0)
           (-70.0 70.0)
           (-70.0 60.0)
  end
  begin
     id 8 
     name rtibia
     direction -0.34202 -0.939693 0   
     length 7.99111   
     axis 0 0 -20   XYZ
    dof rx
    limits (-10.0 170.0)
 end
 begin
     id 9 
     name rfoot
     direction -0.0783088 -0.215152 0.973436   
     length 1.98785  
     axis -90 -7.62852e-016 -20   XYZ
    dof rx rz
    limits (-45.0 90.0)
           (-20.0 70.0)
  end
  begin
     id 10 
     name rtoes
     direction -1.53606e-011 -4.21943e-011 1   
     length 1.001   
     axis -90 -7.62852e-016 -20   XYZ
    dof rx
    limits (-90.0 20.0)
  end
  begin
     id 11 
     name lowerback
     direction 0.00141527 0.998403 -0.0564763   
     length 2.30486   
     axis 0 0 0   XYZ
    dof rx ry rz
    limits (-20.0 45.0)
           (-30.0 30.0)
           (-30.0 30.0)
  end
  begin
     id 12 
     name upperback
     direction 0.0125137 0.999915 0.00361315   
     length 2.30697   
     axis 0 0 0   XYZ
    dof rx ry rz
    limits (-20.0 45.0)
           (-30.0 30.0)
           (-30.0 30.0)
  end
  begin
     id 13 
     name thorax
     direction 0.0136417 0.999471 0.0295116   
     length 2.31005   
     axis 0 0 0   XYZ
    dof rx ry rz
    limits (-20.0 45.0)
           (-30.0 30.0)
           (-30.0 30.0)
  end
  begin
     id 14 
     name lowerneck
     direction 0.0766806 0.997047 0.00422047   
     length 1.68825   
     axis 0 0 0   XYZ
    dof rx ry rz
    limits (-20.0 45.0)
           (-30.0 30.0)
           (-30.0 30.0)
  end
  begin
     id 15 
     name upperneck
     direction -0.143512 0.985106 -0.0947088   
     length 1.69772   
     axis 0 0 0   XYZ
    dof rx ry rz
    limits (-20.0 45.0)
           (-30.0 30.0)
           (-30.0 30.0)
  end
  begin
     id 16
     name head
     direction -0.0539128 0.997849 -0.0372864  
     length 1.71187  
     axis 0 0 0   XYZ
    dof rx ry rz
    limits (-20.0 45.0)
           (-30.0 30.0)
           (-30.0 30.0)
  end
  begin
     id 17 
     name lclavicle
     direction 0.978251 0.207416 -0.00165765  
     length 3.35399  
     axis 0 0 0   XYZ
    dof ry rz
    limits (-20.0 10.0)
           (0.0 20.0)
  end
  begin
     id 18 
     name lhumerus
     direction 1 -4.48966e-011 -1.32191e-028   
     length 5.70706   
     axis 180 -30 -90   XYZ
    dof rx ry rz
    limits (-60.0 90.0)
           (-90.0 90.0)
           (-90.0 90.0)
  end
  begin
     id 19
     name lradius
     direction 1 -4.48976e-011 9.36106e-027   
     length 3.33243   
     axis 180 -30 -90   XYZ
    dof rx
    limits (-10.0 170.0)
  end
  begin
     id 20
     name lwrist
     direction 1 -4.48976e-011 1.1555e-026   
     length 1.66621   
     axis -5.7412e-015 90 90   XYZ
    dof ry
    limits (-180.0 0.0)
 end
  begin
     id 21 
     name lhand
     direction 1 -4.48939e-011 2.31113e-026   
     length 0.792687   
     axis -1.47463e-014 90 90   XYZ
    dof rx rz
    limits (-90.0 90.0)
           (-45.0 45.0)
  end
  begin
     id 22 
     name lfingers
     direction 1 -4.48866e-011 4.62274e-026   
     length 0.639085   
     axis -2.94925e-014 90 90   XYZ
    dof rx
    limits (0.0 90.0)
  end
  begin
     id 23
     name lthumb
     direction 0.707107 -6.34847e-011 0.707107   
     length 0.917601   
     axis -90 45 -6.68868e-015   XYZ
    dof rx rz
    limits (-45.0 45.0)
           (-45.0 45.0)
  end
  begin
     id 24 
     name rclavicle
     direction -0.981813 0.185514 0.0403428   
     length 3.47271  
     axis 0 0 0   XYZ 
    dof ry rz
    limits (-10.0 20.0)
           (-20.0 0.0)
  end
  begin
     id 25 
     name rhumerus
     direction -1 -4.48972e-011 -6.58544e-029  
     length 5.88176   
     axis 180 30 90   XYZ
    dof rx ry rz
    limits (-90.0 60.0)
           (-90.0 90.0)
           (-90.0 90.0)
  end
  begin
     id 26 
     name rradius
     direction -1 -4.48964e-011 8.36306e-027   
     length 3.28156   
     axis 180 30 90   XYZ
    dof rx
    limits (-10.0 170.0)
  end
  begin
     id 27 
     name rwrist
     direction -1 -4.48903e-011 1.15562e-026   
     length 1.64078   
     axis -5.7412e-015 -90 -90   XYZ
    dof ry
    limits (-180.0 0.0)
  end
  begin
     id 28
     name rhand
     direction -1 -4.49055e-011 2.31074e-026   
     length 0.863125   
     axis -1.47463e-014 -90 -90   XYZ
    dof rx rz
    limits (-90.0 90.0)
           (-45.0 45.0)
  end
  begin
     id 29
     name rfingers
     direction -1 -4.48994e-011 4.62188e-026   
     length 0.695873   
     axis -2.94925e-014 -90 -90   XYZ
    dof rx
    limits (0.0 90.0)
  end
  begin
     id 30
     name rthumb
     direction -0.707107 -6.35058e-011 0.707107   
     length 0.999139   
     axis -90 -45 6.68868e-015   XYZ
    dof rx rz
    limits (-45.0 45.0)
           (-45.0 45.0)
  end
:hierarchy
  begin
    root lhipjoint rhipjoint lowerback
    lhipjoint lfemur
    lfemur ltibia
    ltibia lfoot
    lfoot ltoes
    rhipjoint rfemur
    rfemur rtibia
    rtibia rfoot
    rfoot rtoes
    lowerback upperback
    upperback thorax
    thorax lowerneck lclavicle rclavicle
    lowerneck upperneck
    upperneck head
    lclavicle lhumerus
    lhumerus lradius
    lradius lwrist
    lwrist lhand lthumb
    lhand lfingers
    rclavicle rhumerus
    rhumerus rradius
    rradius rwrist
    rwrist rhand rthumb
    rhand rfingers
  end

#!OML:ASF \\Waltz\H\Terrain\Patient Classification 1\Animal2\Wednesday\Animal2.ASF
:FULLY-SPECIFIED
:DEGREES
477
root 1.57855 16.7326 -18.2036 5.30656 4.69861 14.987
lowerback 8.09878 -2.24142 2.69211
upperback -1.71171 -3.10148 -5.89288
thorax -6.85529 -1.78231 -7.36106
lowerneck 18.9965 19.1714 15.7377
upperneck -14.8337 26.3887 -30.952
head -0.758208 15.1027 -12.5519
rclavicle 4.67144e-015 6.75868e-015
rhumerus 13.3408 33.4515 -63.9849
rradius 97.5984
rwrist -16.0059
rhand -16.9524 14.6872
rfingers 7.12502
rthumb 9.28126 -15.0885
lclavicle 4.67144e-015 6.75868e-015
lhumerus 28.9935 16.1339 28.1127
lradius 84.5856
lwrist 4.19965
lhand -50.015 16.5577
lfingers 7.12502
lthumb -22.6035 45.2543
rfemur -31.2766 -8.3179 9.33431
rtibia 58.5509
rfoot -34.4863 -2.88708
rtoes 28.9808
lfemur -28.8208 -2.56743 -27.8545
ltibia 46.1992
lfoot -22.2073 -13.6045
ltoes -36.8703
478
root 1.54709 16.7191 -18.1985 5.13721 5.42103 14.4416
lowerback 8.19069 -2.27852 2.81374
upperback -1.47595 -3.10606 -5.55966
thorax -6.64083 -1.76818 -7.06325
lowerneck 18.9626 19.1509 15.7191
upperneck -14.9131 26.347 -30.8964
head -0.797322 15.0799 -12.5416
rclavicle -6.26172e-015 -1.66979e-014
rhumerus 13.4355 32.9887 -63.793
rradius 97.3706
rwrist -16.4851
rhand -16.3703 15.2862
rfingers 7.12502
rthumb 9.84286 -14.4637
lclavicle -6.26172e-015 -1.66979e-014
lhumerus 29.5206 16.2563 28.5881
lradius 84.6495
lwrist 3.71454
lhand -50.1793 16.6549
lfingers 7.12502
lthumb -22.7612 45.3322
rfemur -30.9408 -8.57905 10.1013
rtibia 58.5535
rfoot -34.5091 -3.53188
rtoes 28.4648
lfemur -28.9055 -2.34749 -27.2983
ltibia 46.8111
lfoot -22.5308 -12.791
ltoes -36.4621
479
root 1.51241 16.7111 -18.1896 4.9892 6.07924 13.9744
lowerback 8.16958 -2.34831 2.83771
upperback -1.30599 -3.17194 -5.27607
thorax -6.4392 -1.7847 -6.75835
lowerneck 19.1489 19.2098 15.6707
upperneck -15.1768 26.4023 -30.6254
head -0.941723 15.103 -12.4936
rclavicle -1.89839e-014 -3.57812e-014
rhumerus 13.1827 32.7955 -63.7493
rradius 97.5056
rwrist -16.5295
rhand -16.413 15.1896
rfingers 7.12502
rthumb 9.80174 -14.5623
lclavicle -1.89839e-014 -3.57812e-014
lhumerus 29.8367 16.3336 28.8706
lradius 84.7849
lwrist 3.42466
lhand -50.3858 16.1767
lfingers 7.12502
lthumb -22.9593 44.8295
rfemur -30.5758 -8.87199 10.7624
rtibia 58.4982
rfoot -34.5912 -3.60354
rtoes 28.7693
lfemur -29.0126 -2.07078 -26.8189
ltibia 47.4806
lfoot -22.9238 -12.0601
ltoes -35.1476
480
root 1.47754 16.6988 -18.1755 4.81689 6.74239 13.5397
lowerback 8.17014 -2.41511 2.82768
upperback -1.21858 -3.24364 -5.03536
thorax -6.33957 -1.80891 -6.48072
lowerneck 19.489 19.134 15.927
upperneck -15.2332 26.4005 -30.4143
head -1.01085 15.0928 -12.5103
rclavicle -1.28713e-014 -2.22639e-014
rhumerus 12.8071 32.8677 -63.9875
rradius 97.4525
rwrist -15.7242
rhand -17.5956 14.9137
rfingers 7.12502
rthumb 8.66057 -14.8886
lclavicle -1.28713e-014 -2.22639e-014
lhumerus 29.9833 16.2132 29.0195
lradius 85.057
lwrist 3.1441
lhand -50.5421 16.4985
lfingers 7.12502
lthumb -23.1093 45.1326
rfemur -30.1154 -9.15233 11.3534
rtibia 58.4166
rfoot -34.8151 -3.16923
rtoes 30.2332
lfemur -29.0794 -1.88784 -26.3749
ltibia 48.1321
lfoot -23.2891 -11.3301
ltoes -33.8299
481
root 1.44459 16.6864 -18.1598 4.60323 7.53347 12.9312
lowerback 8.21693 -2.51345 2.95932
upperback -1.08905 -3.33677 -4.71024
thorax -6.22701 -1.84594 -6.19063
lowerneck 19.5321 18.9829 16.2779
upperneck -15.0351 26.3305 -30.3696
head -0.934728 15.0379 -12.5336
rclavicle -4.18939e-014 -3.10104e-014
rhumerus 12.767 32.5911 -64.2843
rradius 97.2528
rwrist -16.1274
rhand -16.9789 14.5798
rfingers 7.12502
rthumb 9.25568 -15.1971
lclavicle -4.18939e-014 -3.10104e-014
lhumerus 30.1523 16.229 29.2473
lradius 85.4194
lwrist 2.8929
lhand -50.523 17.1315
lfingers 7.12502
lthumb -23.091 45.7679
rfemur -29.6596 -9.58541 12.1396
rtibia 58.3124
rfoot -34.9847 -3.05194
rtoes 30.8448
lfemur -29.1613 -1.77714 -25.7995
ltibia 48.7262
lfoot -23.1518 -10.6311
ltoes -33.6133
482
root 1.41239 16.6751 -18.1448 4.507 8.37706 12.4097
lowerback 8.17471 -2.64289 2.9771
upperback -1.03682 -3.48497 -4.35624
thorax -6.14331 -1.90827 -5.79966
lowerneck 19.679 18.8339 16.4383
upperneck -14.9367 26.2047 -30.3087
head -0.947435 14.9705 -12.5673
rclavicle 1.50082e-014 1.43125e-014
rhumerus 12.5952 32.5993 -64.3735
rradius 97.0771
rwrist -16.3995
rhand -17.0526 14.1682
rfingers 7.12502
rthumb 9.1846 -15.6118
lclavicle 1.50082e-014 1.43125e-014
lhumerus 30.2963 16.2955 29.5032
lradius 85.6652
lwrist 2.74645
lhand -50.226 16.8427
lfingers 7.12502
lthumb -22.806 45.5144
rfemur -29.3335 -10.1499 12.8512
rtibia 58.1902
rfoot -35.0766 -3.38006
rtoes 30.3363
lfemur -29.3417 -1.75317 -25.3475
ltibia 49.2662
lfoot -22.8933 -10.0224
ltoes -33.9202
483
root 1.38253 16.6615 -18.127 4.48714 9.07511 12.0737
lowerback 7.99266 -2.68606 2.83814
upperback -1.03778 -3.54255 -4.10291
thorax -6.02075 -1.92355 -5.44639
lowerneck 20.116 18.7215 16.5164
upperneck -14.9476 26.1271 -29.9936
head -1.08071 14.9245 -12.5593
rclavicle -1.07344e-014 3.18055e-015
rhumerus 12.1941 32.7414 -64.3994
rradius 97.1016
rwrist -16.4916
rhand -17.6927 13.2084
rfingers 7.12502
rthumb 8.56689 -16.5978
lclavicle -1.07344e-014 3.18055e-015
lhumerus 30.589 16.1714 29.7938
lradius 85.804
lwrist 2.54762
lhand -49.9983 16.241
lfingers 7.12502
lthumb -22.5874 44.9396
rfemur -29.0112 -10.6048 13.3404
rtibia 58.0337
rfoot -35.1864 -3.43265
rtoes 30.4345
lfemur -29.5215 -1.75458 -25.0871
ltibia 49.7922
lfoot -22.9482 -9.29903
ltoes -33.2845
484
root 1.35131 16.6514 -18.1092 4.36751 9.62856 11.4565
lowerback 7.78768 -2.65096 2.96203
upperback -0.909304 -3.46707 -3.84536
thorax -5.74905 -1.87689 -5.26163
lowerneck 20.3921 18.674 16.8409
upperneck -15.0057 26.1853 -29.768
head -1.11822 14.9344 -12.5579
rclavicle 2.74323e-014 2.38542e-015
rhumerus 11.8886 32.5363 -64.441
rradius 97.0991
rwrist -16.5017
rhand -17.897 12.874
rfingers 7.12502
rthumb 8.36978 -16.9402
lclavicle 2.74323e-014 2.38542e-015
lhumerus 31.0674 16.0979 30.115
lradius 86.0058
lwrist 2.22621
lhand -50.3787 15.9746
lfingers 7.12502
lthumb -22.9525 44.6282
rfemur -28.7089 -10.8171 14.1537
rtibia 57.8119
rfoot -35.157 -3.63298
rtoes 30.4481
lfemur -29.7042 -1.52533 -24.5461
ltibia 50.3674
lfoot -23.096 -8.67464
ltoes -32.0803
485
root 1.31444 16.6475 -18.0941 4.20985 10.2449 10.5673
lowerback 7.77224 -2.67477 3.28145
upperback -0.791998 -3.44555 -3.48451
thorax -5.60935 -1.86375 -5.06495
lowerneck 19.9562 18.7037 17.1385
upperneck -14.6147 26.3437 -29.4471
head -0.912215 14.938 -12.369
rclavicle -4.95968e-014 -2.3059e-014
rhumerus 11.7707 32.1698 -64.4223
rradius 97.0937
rwrist -16.8024
rhand -17.7098 13.3175
rfingers 7.12502
rthumb 8.5504 -16.4894
lclavicle -4.95968e-014 -2.3059e-014
lhumerus 31.4509 16.1608 30.4187
lradius 86.2029
lwrist 1.77455
lhand -50.9312 16.0576
lfingers 7.12502
lthumb -23.4826 44.6445
rfemur -28.4431 -10.8722 15.3224
rtibia 57.5382
rfoot -35.1388 -4.26341
rtoes 29.9653
lfemur -30.0054 -1.26495 -23.7234
ltibia 50.9981
lfoot -23.3703 -8.29213
ltoes -31.1156
486
root 1.28317 16.6402 -18.076 3.99748 10.974 9.74998
lowerback 7.91544 -2.78056 3.59267
upperback -0.779344 -3.53213 -3.10249
thorax -5.68102 -1.90962 -4.81937
lowerneck 19.4641 18.665 17.1119
upperneck -14.1169 26.3287 -28.9668
head -0.78177 14.8504 -12.1177
rclavicle -1.60519e-014 3.81667e-014
rhumerus 11.6324 32.1537 -64.3887
rradius 97.4398
rwrist -17.0939
rhand -17.8082 12.0197
rfingers 7.12502
rthumb 8.45543 -17.791
lclavicle -1.60519e-014 3.81667e-014
lhumerus 31.6736 16.1672 30.681
lradius 86.3176
lwrist 1.27063
lhand -51.0115 16.2399
lfingers 7.12502
lthumb -23.5596 44.8168
rfemur -27.99 -11.1496 16.3512
rtibia 57.2676
rfoot -35.3228 -4.19498
rtoes 30.8028
lfemur -30.2358 -1.23605 -23.015
ltibia 51.6633
lfoot -23.5856 -7.86809
ltoes -29.6948
487
root 1.25668 16.6298 -18.0553 3.69764 11.5678 8.84395
lowerback 7.9991 -2.87369 4.07898
upperback -0.897473 -3.58604 -2.72167
thorax -5.86505 -1.95052 -4.67862
lowerneck 20.1646 18.4375 17.0203
upperneck -14.3408 26.0442 -28.6288
head -1.09146 14.7229 -12.1742
rclavicle 1.83876e-015 -2.38542e-015
rhumerus 11.0039 32.5059 -64.7572
rradius 97.5647
rwrist -17.1378
rhand -18.2932 11.8562
rfingers 7.12502
rthumb 7.98737 -17.9729
lclavicle 1.83876e-015 -2.38542e-015
lhumerus 31.6392 15.9301 30.7813
lradius 86.4362
lwrist 0.934116
lhand -50.8615 16.1727
lfingers 7.12502
lthumb -23.4157 44.768
rfemur -27.4965 -11.4463 17.4217
rtibia 56.9693
rfoot -35.4574 -3.86767
rtoes 32.0084
lfemur -30.3798 -1.09667 -22.2676
ltibia 52.3517
lfoot -23.5772 -7.49562
ltoes -28.8249
